<?xml version="1.0" encoding="utf-8"?>
<!-- Generator: Adobe Illustrator 15.1.0, SVG Export Plug-In . SVG Version: 6.00 Build 0)  -->
<!DOCTYPE svg PUBLIC "-//W3C//DTD SVG 1.1//EN" "http://www.w3.org/Graphics/SVG/1.1/DTD/svg11.dtd">
<svg version="1.1" id="Layer_1" xmlns="http://www.w3.org/2000/svg" xmlns:xlink="http://www.w3.org/1999/xlink" x="0px" y="0px"
	 width="269.589px" height="114.26px" viewBox="0 0 269.589 114.26" enable-background="new 0 0 269.589 114.26"
	 xml:space="preserve">
<g>
	<g>
		<path fill="#1FA78A" stroke="#FFFFFF" stroke-width="2" stroke-miterlimit="10" d="M111.058,23.952
			c-4.095,2.436-6.64,5.424-7.636,8.964L87.984,87.198c-2.436,8.521-6.863,12.782-13.28,12.782H63.748l-1.162,4.98
			c-1.328,5.531-5.81,8.299-13.446,8.299H11.458C4.486,113.26,1,111.211,1,107.119c0-0.996,0.112-1.884,0.332-2.656l2.158-7.969
			c0.884-3.32,4.482-4.98,10.79-4.98l32.536-0.166c0.996,0,1.66-0.057,1.992-0.166c0.332-0.111,0.607-0.498,0.83-1.161
			l10.126-33.698c0.884-2.765,0.055-4.15-2.49-4.15h-3.32l-9.96,35.69H27.062l16.102-54.78c-3.211-0.221-5.146,0.941-5.81,3.486
			L23.078,87.696h-16.6l15.106-52.788c1.105-3.984,2.628-6.806,4.565-8.466c1.935-1.66,4.897-2.49,8.881-2.49h46.978l-3.154,9.296
			H59.598l-3.32,10.79H66.57c6.64,0,9.96,2.879,9.96,8.632c0,1.883-0.332,3.984-0.996,6.308l-9.13,32.037
			c2.544,0.332,4.15-0.664,4.814-2.987L88.98,23.952H111.058z M45.488,99.98H21.252c-1.44,0-2.158,1.105-2.158,3.32
			c0,0.772,0.275,1.162,0.83,1.162h23.738c1.769,0,2.656-1.054,2.656-3.154C46.318,100.422,46.041,99.98,45.488,99.98z"/>
		<path fill="#1FA78A" stroke="#FFFFFF" stroke-width="2" stroke-miterlimit="10" d="M150.068,77.736l-3.486,9.96h-45.318
			c-1.771,0-3.266-0.636-4.482-1.909c-1.219-1.271-1.826-2.793-1.826-4.564c0-0.664,0.054-1.217,0.166-1.66l14.442-55.61h20.418
			v0.664c-2.324,0.332-3.93,2.049-4.814,5.146l-11.786,43.16c-0.223,0.775-0.332,1.385-0.332,1.826c0,1.992,1.826,2.988,5.478,2.988
			H150.068z"/>
		<path fill="#1FA78A" stroke="#FFFFFF" stroke-width="2" stroke-miterlimit="10" d="M211.32,24.284
			c-1.771,0.887-3.1,2.768-3.984,5.644l-13.446,46.48c-0.555,1.883-0.829,3.486-0.829,4.814c0,3.211,1.327,5.092,3.983,5.644v0.83
			h-46.812l15.604-54.78c0.332-1.217,0.498-2.213,0.498-2.988c0-2.656-1.162-4.371-3.486-5.146v-0.83h22.244l-16.434,55.61h7.968
			l16.103-55.61h18.592V24.284z"/>
		<path fill="#1FA78A" stroke="#FFFFFF" stroke-width="2" stroke-miterlimit="10" d="M268.257,32.584l-12.45,45.484
			c-0.775,2.768-2.49,5.063-5.146,6.889c-2.655,1.826-5.423,2.739-8.3,2.739h-22.078l16.269-8.3c1.104-0.553,1.88-1.549,2.323-2.988
			l12.118-41.666c0.332-1.216,0.055-1.826-0.83-1.826h-1.659c-0.776,0-1.386,0.664-1.826,1.992l-12.782,42.994l-15.272,8.134
			l0.83,1.66h-23.903L209.99,33.58c0.441-1.66,0.664-2.988,0.664-3.984c0-1.992-1.107-3.873-3.32-5.644h22.078L213.975,79.23h3.983
			l12.284-43.326c1.217-4.316,2.877-7.387,4.98-9.213c2.101-1.826,5.312-2.739,9.628-2.739h16.932c4.537,0,6.807,2.104,6.807,6.308
			C268.589,31.036,268.477,31.812,268.257,32.584z"/>
	</g>
	<g>
		<polygon fill="#1FA78A" points="149.796,17.868 146.225,16.162 143.359,18.162 140.494,16.162 137.625,18.162 135.461,16.454 
			133.755,14.298 135.755,11.433 133.755,8.568 135.755,5.698 134.047,2.122 137.619,3.829 140.483,1.829 143.349,3.829 
			146.219,1.829 148.382,3.537 150.088,5.692 148.088,8.557 150.088,11.422 148.094,14.401 		"/>
		<polygon fill="none" stroke="#FFFFFF" stroke-width="2" stroke-miterlimit="10" points="149.796,17.868 146.225,16.162 
			143.359,18.162 140.494,16.162 137.625,18.162 135.461,16.454 133.755,14.298 135.755,11.433 133.755,8.568 135.755,5.698 
			134.047,2.122 137.619,3.829 140.483,1.829 143.349,3.829 146.219,1.829 148.382,3.537 150.088,5.692 148.088,8.557 
			150.088,11.422 148.094,14.401 		"/>
	</g>
	<g>
		<polygon fill="#1FA78A" points="258.297,17.868 254.725,16.162 251.859,18.162 248.994,16.162 246.125,18.162 243.962,16.454 
			242.256,14.298 244.256,11.433 242.256,8.568 244.256,5.698 242.547,2.122 246.119,3.829 248.984,1.829 251.85,3.829 
			254.719,1.829 256.883,3.537 258.588,5.692 256.588,8.557 258.588,11.422 256.594,14.401 		"/>
		<polygon fill="none" stroke="#FFFFFF" stroke-width="2" stroke-miterlimit="10" points="258.297,17.868 254.725,16.162 
			251.859,18.162 248.994,16.162 246.125,18.162 243.962,16.454 242.256,14.298 244.256,11.433 242.256,8.568 244.256,5.698 
			242.547,2.122 246.119,3.829 248.984,1.829 251.85,3.829 254.719,1.829 256.883,3.537 258.588,5.692 256.588,8.557 
			258.588,11.422 256.594,14.401 		"/>
	</g>
	<g>
		<path fill="#3D3F3F" d="M97.999,102.871c0.155-0.441,0.259-0.864,0.31-1.267c0.052-0.402,0.078-0.718,0.078-0.948
			c0-0.851-0.211-1.518-0.633-2s-1.065-0.725-1.927-0.725c-0.719,0-1.305,0.186-1.759,0.557s-0.701,0.719-0.741,1.043
			c-0.041,0.324-0.061,0.53-0.061,0.616c0,0.213,0.023,0.327,0.069,0.345c0.046,0.018,0.069,0.006,0.069-0.034
			c0.069-0.558,0.287-0.989,0.655-1.298c0.368-0.307,0.776-0.461,1.225-0.461c0.517,0,0.923,0.128,1.22,0.384
			c0.296,0.256,0.444,0.622,0.444,1.099c0,0.047-0.003,0.097-0.009,0.151s-0.026,0.238-0.06,0.552
			c-0.035,0.313-0.253,0.643-0.655,0.986c-0.402,0.346-0.931,0.518-1.586,0.518c-0.557,0-1.055-0.169-1.491-0.508
			c-0.437-0.34-0.655-0.88-0.655-1.621c0-0.144,0.027-0.447,0.082-0.91c0.055-0.462,0.421-0.952,1.099-1.469
			c0.678-0.518,1.451-0.776,2.319-0.776c1.293,0,2.27,0.342,2.931,1.026c0.661,0.684,0.991,1.589,0.991,2.715
			c0,0.086-0.001,0.167-0.004,0.242c-0.003,0.074-0.016,0.224-0.039,0.447c-0.023,0.225-0.061,0.45-0.112,0.678
			c-0.052,0.227-0.115,0.446-0.19,0.658l1.441,0.001l0.645-5.268l1.511,0.001l-1.173,9.576h-1.511l0.419-3.422h-1.712
			c-0.517,1.006-1.329,1.828-2.435,2.465c-1.106,0.639-2.576,0.957-4.41,0.957c-1.374,0-2.539-0.385-3.496-1.154
			c-0.957-0.771-1.436-1.639-1.436-2.604c0-0.053,0-0.104,0-0.156c0.012-0.068,0.023-0.151,0.035-0.25
			c0.011-0.098,0.081-0.146,0.207-0.146H97.999z M88.671,103.76c-0.081,0-0.121,0.029-0.121,0.086v0.086
			c0.075,0.535,0.479,1.064,1.211,1.591c0.733,0.526,1.556,0.789,2.47,0.789c1.264,0,2.349-0.21,3.254-0.63
			c0.905-0.419,1.605-1.061,2.099-1.922H88.671z M94.999,99.458c-0.224,0-0.427,0.093-0.608,0.28
			c-0.181,0.187-0.283,0.373-0.306,0.561c-0.023,0.187-0.034,0.3-0.034,0.34c0,0.041,0,0.069,0,0.086
			c0,0.271,0.062,0.488,0.185,0.651c0.124,0.164,0.283,0.245,0.479,0.245c0.23,0,0.43-0.093,0.599-0.279
			c0.169-0.188,0.266-0.379,0.289-0.578c0.023-0.197,0.034-0.338,0.034-0.418c0-0.252-0.059-0.464-0.177-0.633
			C95.342,99.543,95.188,99.458,94.999,99.458z"/>
		<path fill="#3D3F3F" d="M112.163,102.005c0.04-0.345,0.061-0.685,0.061-1.019c0-0.828-0.135-1.455-0.404-1.881
			s-0.613-0.639-1.032-0.639c-0.441,0-0.799,0.199-1.074,0.598s-0.45,0.9-0.524,1.507l-0.583,4.759l-1.52-0.002l0.612-4.99
			c0.011-0.121,0.02-0.211,0.026-0.268c0.005-0.058,0.008-0.145,0.008-0.259c0-0.392-0.073-0.713-0.22-0.966
			c-0.146-0.252-0.415-0.379-0.806-0.379c-0.351,0-0.652,0.148-0.905,0.443c-0.253,0.297-0.419,0.771-0.5,1.428l-0.605,4.992
			l-0.886-0.002l0.629-5.111c0.086-0.695,0.335-1.309,0.746-1.841c0.411-0.531,0.979-0.798,1.703-0.798
			c0.667,0,1.108,0.158,1.323,0.475c0.216,0.316,0.398,0.695,0.547,1.139c0.069-0.139,0.141-0.277,0.216-0.417
			c0.195-0.312,0.461-0.589,0.797-0.831c0.336-0.243,0.74-0.365,1.211-0.365c0.896,0,1.579,0.303,2.047,0.906
			c0.469,0.604,0.703,1.433,0.703,2.485c0,0.333-0.02,0.661-0.06,0.983l-0.069,0.57c-0.126,1.052-0.473,1.93-1.039,2.631
			s-1.22,1.215-1.961,1.541c-0.741,0.324-1.459,0.486-2.155,0.486h-2.595c-0.454,0-0.812,0.07-1.073,0.211
			c-0.261,0.141-0.401,0.279-0.418,0.417s-0.026,0.218-0.026,0.241c0,0.021,0,0.039,0,0.051c0,0.138,0.036,0.234,0.108,0.293
			c0.072,0.057,0.195,0.102,0.371,0.133s0.325,0.102,0.448,0.211c0.124,0.108,0.186,0.266,0.186,0.473
			c0,0.045-0.009,0.131-0.026,0.258c-0.018,0.125-0.115,0.256-0.293,0.391s-0.411,0.202-0.698,0.202
			c-0.356,0-0.652-0.114-0.888-0.345c-0.236-0.229-0.354-0.584-0.354-1.066c0-0.12,0.023-0.371,0.069-0.752s0.331-0.734,0.854-1.059
			c0.523-0.323,1.19-0.485,2-0.485h2.396c0.994,0,1.806-0.344,2.436-1.031s1.016-1.627,1.159-2.817L112.163,102.005z"/>
		<path fill="#3D3F3F" d="M112.102,98.397c-0.621-0.108-1.131-0.349-1.53-0.72s-0.599-0.953-0.599-1.746c0-0.092,0-0.168,0-0.229
			s0.039-0.395,0.117-1.004c0.077-0.609,0.473-1.227,1.185-1.854c0.713-0.626,1.529-0.939,2.448-0.939
			c0.914,0,1.631,0.296,2.151,0.888c0.52,0.593,0.78,1.386,0.78,2.38c0,0.229-0.017,0.471-0.052,0.724l-1.155,9.431h-0.877
			l1.133-9.25c0.019-0.155,0.029-0.305,0.029-0.448c0-0.689-0.194-1.248-0.582-1.677c-0.388-0.428-0.938-0.642-1.651-0.642
			c-0.707,0-1.287,0.216-1.741,0.646s-0.71,0.881-0.767,1.349c-0.058,0.469-0.086,0.771-0.086,0.91c0,0.592,0.131,1.007,0.392,1.246
			c0.262,0.238,0.556,0.4,0.884,0.486L112.102,98.397z"/>
		<path fill="#3D3F3F" d="M123.317,105.328c0.333-0.385,0.641-0.846,0.922-1.383s0.451-1.047,0.509-1.526
			c0.057-0.479,0.086-0.803,0.086-0.97c0-0.833-0.247-1.525-0.741-2.078c-0.495-0.551-1.184-0.827-2.069-0.827
			c-0.897,0-1.683,0.312-2.358,0.936s-1.05,1.245-1.125,1.866s-0.112,1.025-0.112,1.216c0,0.259,0.02,0.454,0.061,0.586
			c0.04,0.132,0.092,0.245,0.155,0.337c0.017,0.012,0.031,0.008,0.043-0.01c0-0.126,0-0.225,0-0.297s0.026-0.318,0.078-0.741
			s0.286-0.842,0.703-1.259c0.417-0.416,0.875-0.625,1.375-0.625c0.546,0,0.984,0.171,1.314,0.514
			c0.331,0.342,0.496,0.822,0.496,1.443c0,0.138-0.024,0.414-0.073,0.828c-0.049,0.413-0.326,0.859-0.832,1.34
			c-0.506,0.48-1.066,0.72-1.681,0.72c-0.632,0-1.208-0.232-1.729-0.698c-0.52-0.465-0.78-1.201-0.78-2.207
			c0-0.219,0.044-0.675,0.134-1.371c0.089-0.695,0.576-1.479,1.461-2.349c0.885-0.87,1.977-1.306,3.276-1.306
			c1.259,0,2.243,0.381,2.953,1.143s1.065,1.658,1.065,2.693c0,0.161-0.021,0.424-0.065,0.789c-0.043,0.365-0.142,0.748-0.297,1.15
			s-0.342,0.802-0.56,1.199h2.898l0.832-6.838l1.511,0.001l-0.94,7.724H123.317z M120.524,101.424c-0.265,0-0.504,0.138-0.72,0.414
			c-0.215,0.275-0.343,0.571-0.383,0.887c-0.041,0.316-0.061,0.529-0.061,0.639c0,0.373,0.069,0.672,0.207,0.896
			c0.138,0.225,0.319,0.336,0.543,0.336c0.264,0,0.5-0.137,0.707-0.409s0.331-0.567,0.371-0.884s0.061-0.529,0.061-0.638
			c0-0.351-0.068-0.646-0.203-0.884C120.911,101.543,120.737,101.424,120.524,101.424z"/>
		<path fill="#3D3F3F" d="M129.171,98.397c-0.621-0.108-1.131-0.349-1.53-0.72s-0.599-0.953-0.599-1.746c0-0.092,0-0.168,0-0.229
			s0.039-0.395,0.117-1.004c0.077-0.609,0.473-1.227,1.185-1.854c0.713-0.626,1.529-0.939,2.448-0.939
			c0.914,0,1.631,0.296,2.151,0.888c0.52,0.593,0.78,1.386,0.78,2.38c0,0.229-0.017,0.471-0.052,0.724l-1.155,9.431h-0.877
			l1.133-9.25c0.019-0.155,0.029-0.305,0.029-0.448c0-0.689-0.194-1.248-0.582-1.677c-0.388-0.428-0.938-0.642-1.651-0.642
			c-0.707,0-1.287,0.216-1.741,0.646s-0.71,0.881-0.767,1.349c-0.058,0.469-0.086,0.771-0.086,0.91c0,0.592,0.131,1.007,0.392,1.246
			c0.262,0.238,0.556,0.4,0.884,0.486L129.171,98.397z"/>
		<path fill="#3D3F3F" d="M138.231,105.328l0.129-1.086c-0.172,0.29-0.417,0.551-0.733,0.782s-0.704,0.347-1.164,0.347
			c-0.626,0-1.072-0.172-1.336-0.518c-0.264-0.347-0.396-0.808-0.396-1.385c0-0.121,0.003-0.215,0.01-0.281
			c0.006-0.065,0.019-0.177,0.039-0.332l0.644-5.25l0.877-0.001l-0.646,5.276c-0.017,0.162-0.029,0.268-0.034,0.32
			c-0.006,0.052-0.009,0.139-0.009,0.26c0,0.358,0.074,0.621,0.224,0.789c0.149,0.168,0.407,0.251,0.773,0.251
			c0.499,0,0.951-0.339,1.358-1.017c0.407-0.677,0.656-1.398,0.748-2.166l0.463-3.715l1.511,0.001l-0.836,6.837h4.727l0.831-6.838
			l1.51,0.001l-0.947,7.724H138.231z"/>
		<path fill="#3D3F3F" d="M152.826,98.544c-0.896,0-1.683,0.312-2.357,0.936c-0.676,0.624-1.051,1.245-1.125,1.866
			c-0.075,0.621-0.113,1.025-0.113,1.216c0,0.259,0.021,0.454,0.061,0.586c0.041,0.132,0.092,0.245,0.156,0.337
			c0.017,0.012,0.031,0.008,0.043-0.01c0-0.126,0-0.225,0-0.297s0.025-0.318,0.077-0.741s0.286-0.842,0.702-1.259
			c0.417-0.416,0.875-0.625,1.375-0.625c0.547,0,0.984,0.171,1.314,0.514c0.331,0.342,0.496,0.822,0.496,1.443
			c0,0.138-0.024,0.414-0.073,0.828c-0.049,0.413-0.326,0.859-0.831,1.34c-0.506,0.48-1.066,0.72-1.682,0.72
			c-0.633,0-1.209-0.232-1.729-0.698c-0.52-0.465-0.78-1.201-0.78-2.207c0-0.219,0.044-0.675,0.134-1.371
			c0.089-0.695,0.576-1.479,1.461-2.349s1.977-1.306,3.275-1.306c1.023,0,1.814,0.263,2.371,0.789
			c0.558,0.525,0.836,1.211,0.836,2.056c0,0.155-0.008,0.31-0.025,0.466l-0.215,1.758c-0.023,0.161-0.041,0.304-0.053,0.428
			c-0.012,0.123-0.017,0.251-0.017,0.383c0,0.385,0.087,0.662,0.263,0.832s0.49,0.254,0.943,0.254c0.609,0,1.15-0.327,1.621-0.982
			s0.742-1.264,0.811-1.824s0.104-0.953,0.104-1.177c0-0.466-0.059-0.838-0.177-1.116c-0.118-0.279-0.267-0.538-0.444-0.776
			c-0.178-0.239-0.458-0.441-0.84-0.608c-0.383-0.166-0.574-0.391-0.574-0.672c0-0.075,0.008-0.16,0.021-0.255
			c0.016-0.095,0.066-0.179,0.156-0.25c0.089-0.071,0.196-0.108,0.322-0.108c0.041,0,0.084,0.006,0.13,0.018s0.25,0.102,0.612,0.268
			c0.361,0.167,0.732,0.619,1.111,1.357c0.38,0.739,0.569,1.488,0.569,2.247c0,0.155-0.043,0.583-0.129,1.284
			c-0.087,0.701-0.472,1.471-1.155,2.307c-0.684,0.837-1.492,1.255-2.422,1.255c-0.875,0-1.489-0.173-1.846-0.517
			c-0.356-0.346-0.534-0.917-0.534-1.716c0-0.294,0.028-0.685,0.086-1.173l0.146-1.215c0.018-0.15,0.026-0.287,0.026-0.414
			c0-0.609-0.184-1.064-0.552-1.367C154.01,98.695,153.492,98.544,152.826,98.544z M151.326,101.424
			c-0.265,0-0.504,0.138-0.721,0.414c-0.215,0.275-0.343,0.571-0.383,0.887c-0.041,0.316-0.061,0.529-0.061,0.639
			c0,0.373,0.068,0.672,0.207,0.896c0.138,0.225,0.318,0.336,0.543,0.336c0.264,0,0.5-0.137,0.707-0.409s0.33-0.567,0.371-0.884
			c0.039-0.316,0.061-0.529,0.061-0.638c0-0.351-0.068-0.646-0.203-0.884S151.539,101.424,151.326,101.424z"/>
		<path fill="#3D3F3F" d="M156.291,93.838c0.288,0,0.535,0.104,0.742,0.31c0.207,0.207,0.311,0.454,0.311,0.741
			s-0.104,0.535-0.311,0.742s-0.454,0.311-0.742,0.311c-0.287,0-0.534-0.104-0.74-0.311c-0.207-0.207-0.311-0.455-0.311-0.742
			s0.104-0.534,0.311-0.741C155.757,93.941,156.004,93.838,156.291,93.838z"/>
		<path fill="#3D3F3F" d="M178.369,93.294c-0.771,0-1.525,0.202-2.264,0.604c-0.738,0.402-1.383,1.032-1.932,1.888
			c-0.549,0.857-0.873,1.693-0.974,2.509c-0.101,0.816-0.151,1.399-0.151,1.75c0,1.333,0.33,2.349,0.988,3.044
			c0.657,0.695,1.486,1.043,2.486,1.043c0.259,0,0.438-0.018,0.539-0.053c0.101-0.034,0.191-0.068,0.271-0.104
			c-0.299-0.131-0.537-0.371-0.715-0.719c-0.179-0.348-0.268-0.74-0.268-1.178c0-0.137,0.025-0.431,0.077-0.879
			s0.302-0.921,0.75-1.418s0.991-0.746,1.63-0.746c0.62,0,1.114,0.189,1.482,0.569c0.367,0.38,0.552,0.886,0.552,1.517
			c0,0.127-0.039,0.508-0.116,1.143c-0.078,0.635-0.49,1.308-1.237,2.018s-1.759,1.064-3.034,1.064
			c-0.725,0-1.408-0.181-2.053-0.543c-0.643-0.361-1.17-0.938-1.582-1.729c-0.41-0.79-0.615-1.797-0.615-3.021
			c0-0.471,0.061-1.215,0.186-2.232c0.123-1.018,0.545-2.03,1.267-3.039s1.544-1.747,2.47-2.215
			c0.926-0.469,1.787-0.703,2.586-0.703c1.426,0,2.536,0.454,3.332,1.361c0.797,0.908,1.194,2.069,1.194,3.483
			c0,0.299-0.018,0.604-0.052,0.913l-0.948,7.725h-0.877l0.87-7.086c0.033-0.27,0.05-0.535,0.05-0.793
			c0-1.189-0.323-2.183-0.97-2.979S179.685,93.294,178.369,93.294z M178.549,99.984c-0.321,0-0.602,0.16-0.84,0.482
			s-0.373,0.615-0.405,0.879c-0.032,0.265-0.049,0.42-0.052,0.466s-0.004,0.083-0.004,0.112c0,0.402,0.098,0.735,0.293,1
			c0.195,0.264,0.437,0.396,0.725,0.396c0.304,0,0.566-0.156,0.788-0.471c0.222-0.313,0.351-0.62,0.388-0.922
			s0.057-0.504,0.057-0.607c0-0.391-0.088-0.711-0.264-0.961C179.06,100.109,178.831,99.984,178.549,99.984z"/>
		<path fill="#3D3F3F" d="M192.118,101.562h-1.913l-0.139,1.106c-0.063,0.5-0.18,0.939-0.35,1.316
			c-0.169,0.378-0.473,0.697-0.908,0.96c-0.438,0.263-1.053,0.394-1.846,0.394c-0.758,0-1.448-0.266-2.068-0.797
			c-0.621-0.531-0.932-1.156-0.932-1.877c0-0.041,0-0.084,0-0.131c0.012-0.068,0.035-0.25,0.069-0.545
			c0.034-0.294,0.211-0.586,0.53-0.878c0.318-0.291,0.725-0.437,1.22-0.437l0.379-3.069h6.811l-0.112,0.888h-2.284l-0.268,2.182
			h1.914L192.118,101.562z M188.695,101.562h-2.604c-0.425,0-0.725,0.065-0.9,0.194c-0.176,0.13-0.274,0.284-0.297,0.463
			c-0.023,0.179-0.035,0.297-0.035,0.354c0,0.433,0.21,0.851,0.629,1.253c0.42,0.404,0.883,0.605,1.389,0.605
			c0.586,0,0.992-0.135,1.22-0.406c0.228-0.271,0.381-0.723,0.462-1.357L188.695,101.562z M188.797,100.674l0.268-2.182h-2.136
			l-0.27,2.182H188.797z"/>
		<path fill="#3D3F3F" d="M197.213,105.328l0.129-1.086c-0.172,0.29-0.416,0.551-0.732,0.782s-0.704,0.347-1.164,0.347
			c-0.626,0-1.072-0.172-1.336-0.518c-0.264-0.347-0.396-0.808-0.396-1.385c0-0.121,0.003-0.215,0.01-0.281
			c0.006-0.065,0.02-0.177,0.039-0.332l0.643-5.25l0.877-0.001l-0.646,5.276c-0.017,0.162-0.028,0.268-0.033,0.32
			c-0.006,0.052-0.01,0.139-0.01,0.26c0,0.358,0.074,0.621,0.225,0.789c0.148,0.168,0.406,0.251,0.773,0.251
			c0.498,0,0.951-0.339,1.357-1.017c0.407-0.677,0.656-1.398,0.748-2.166l0.463-3.715l1.512,0.001l-0.836,6.837h4.727l0.831-6.838
			l1.511,0.001l-0.947,7.724H197.213z"/>
		<path fill="#3D3F3F" d="M201.722,93.838c0.288,0,0.534,0.104,0.741,0.31c0.207,0.207,0.311,0.454,0.311,0.741
			s-0.104,0.535-0.311,0.742s-0.453,0.311-0.741,0.311c-0.287,0-0.534-0.104-0.741-0.311s-0.311-0.455-0.311-0.742
			s0.104-0.534,0.311-0.741C201.188,93.941,201.435,93.838,201.722,93.838z"/>
		<path fill="#3D3F3F" d="M212.429,104.131c0.271,0,0.5-0.021,0.689-0.061c0.179-0.053,0.29-0.084,0.337-0.096
			c-0.299-0.131-0.538-0.371-0.717-0.719c-0.178-0.348-0.267-0.74-0.267-1.178c0-0.137,0.026-0.431,0.077-0.879
			c0.053-0.448,0.303-0.921,0.75-1.418c0.449-0.497,0.992-0.746,1.63-0.746c0.62,0,1.114,0.189,1.482,0.569s0.552,0.886,0.552,1.517
			c0,0.127-0.037,0.504-0.111,1.13c-0.075,0.626-0.517,1.299-1.324,2.017c-0.807,0.719-1.863,1.078-3.168,1.078
			c-0.741,0-1.467-0.188-2.176-0.564c-0.711-0.377-1.298-0.971-1.764-1.785c-0.465-0.813-0.698-1.843-0.698-3.09
			c0-0.426,0.062-1.134,0.186-2.125s0.524-1.994,1.202-3.009s1.459-1.753,2.341-2.216c0.882-0.462,1.737-0.693,2.564-0.693
			c1.19,0,2.099,0.299,2.729,0.896s0.944,1.385,0.944,2.361c0,0.121,0,0.239,0,0.354c-0.018,0.104-0.051,0.348-0.1,0.733
			s-0.317,0.81-0.806,1.271c-0.489,0.463-1.072,0.694-1.75,0.694c-0.569,0-1.015-0.2-1.337-0.6
			c-0.321-0.399-0.482-0.918-0.482-1.557c0-0.143,0.021-0.389,0.064-0.736s0.201-0.734,0.475-1.16
			c0.273-0.425,0.604-0.721,0.996-0.887c-0.064-0.018-0.167-0.048-0.311-0.092c-0.145-0.043-0.362-0.064-0.655-0.064
			c-0.765,0-1.5,0.185-2.207,0.553c-0.707,0.367-1.327,0.968-1.862,1.801c-0.534,0.834-0.854,1.676-0.957,2.526
			s-0.154,1.451-0.154,1.802c0,1.482,0.373,2.582,1.12,3.297C210.469,103.772,211.371,104.131,212.429,104.131z M214.67,99.984
			c-0.322,0-0.602,0.16-0.84,0.482c-0.239,0.322-0.374,0.615-0.406,0.879c-0.031,0.265-0.049,0.42-0.051,0.466
			c-0.004,0.046-0.005,0.083-0.005,0.112c0,0.402,0.098,0.735,0.293,1c0.195,0.264,0.437,0.396,0.725,0.396
			c0.304,0,0.567-0.156,0.788-0.471c0.222-0.313,0.352-0.62,0.389-0.922s0.056-0.504,0.056-0.607c0-0.391-0.087-0.711-0.263-0.961
			S214.951,99.984,214.67,99.984z M215.006,97.225c0.311,0,0.597-0.158,0.857-0.479c0.262-0.318,0.412-0.63,0.449-0.935
			s0.056-0.522,0.056-0.655c0-0.379-0.073-0.686-0.22-0.918s-0.35-0.35-0.607-0.35c-0.316,0-0.615,0.161-0.896,0.482
			c-0.282,0.322-0.441,0.631-0.479,0.928c-0.037,0.296-0.057,0.498-0.057,0.607c0,0.385,0.079,0.701,0.237,0.948
			S214.725,97.225,215.006,97.225z"/>
		<path fill="#3D3F3F" d="M223.954,105.328c0.333-0.385,0.641-0.846,0.923-1.383c0.281-0.537,0.451-1.047,0.508-1.526
			c0.058-0.479,0.086-0.803,0.086-0.97c0-0.833-0.246-1.525-0.74-2.078c-0.495-0.551-1.185-0.827-2.069-0.827
			c-0.897,0-1.683,0.312-2.358,0.936c-0.675,0.624-1.05,1.245-1.125,1.866c-0.074,0.621-0.111,1.025-0.111,1.216
			c0,0.259,0.02,0.454,0.061,0.586c0.039,0.132,0.092,0.245,0.154,0.337c0.018,0.012,0.031,0.008,0.043-0.01
			c0-0.126,0-0.225,0-0.297s0.026-0.318,0.078-0.741s0.285-0.842,0.703-1.259c0.416-0.416,0.875-0.625,1.375-0.625
			c0.545,0,0.983,0.171,1.314,0.514c0.33,0.342,0.495,0.822,0.495,1.443c0,0.138-0.024,0.414-0.073,0.828
			c-0.049,0.413-0.326,0.859-0.832,1.34s-1.066,0.72-1.681,0.72c-0.632,0-1.208-0.232-1.729-0.698
			c-0.521-0.465-0.78-1.201-0.78-2.207c0-0.219,0.045-0.675,0.134-1.371c0.089-0.695,0.576-1.479,1.461-2.349
			c0.886-0.87,1.978-1.306,3.276-1.306c1.258,0,2.242,0.381,2.952,1.143s1.065,1.658,1.065,2.693c0,0.161-0.021,0.424-0.065,0.789
			c-0.043,0.365-0.142,0.748-0.298,1.15c-0.154,0.402-0.342,0.802-0.56,1.199h2.898l0.831-6.838l1.512,0.001l-0.939,7.724H223.954z
			 M221.161,101.424c-0.265,0-0.505,0.138-0.72,0.414c-0.216,0.275-0.344,0.571-0.384,0.887c-0.04,0.316-0.061,0.529-0.061,0.639
			c0,0.373,0.069,0.672,0.207,0.896s0.319,0.336,0.543,0.336c0.265,0,0.5-0.137,0.707-0.409s0.331-0.567,0.37-0.884
			c0.041-0.316,0.061-0.529,0.061-0.638c0-0.351-0.067-0.646-0.202-0.884C221.547,101.543,221.373,101.424,221.161,101.424z"/>
		<path fill="#3D3F3F" d="M235.713,105.328l0.836-6.836h-2.344l-0.83,6.838l-0.887-0.002l0.949-7.724h6.586l-0.113,0.888h-1.85
			l-0.836,6.837L235.713,105.328z"/>
		<path fill="#3D3F3F" d="M240.713,105.328l0.939-7.724l1.512,0.001l-0.824,6.836l2.844-0.001l0.604-4.948
			c0.074-0.598,0.307-1.07,0.699-1.418c0.391-0.348,0.938-0.521,1.639-0.521c1.029,0,1.855,0.411,2.48,1.232
			c0.623,0.822,0.936,1.75,0.936,2.785c0,0.16-0.037,0.553-0.113,1.176c-0.074,0.625-0.377,1.211-0.908,1.76
			c-0.533,0.549-1.141,0.822-1.824,0.822H240.713z M246.695,104.441h2.043c0.541,0,0.967-0.217,1.275-0.647
			c0.311-0.431,0.494-0.86,0.549-1.288c0.055-0.429,0.082-0.706,0.082-0.832c0-0.793-0.234-1.521-0.703-2.182
			c-0.469-0.66-1.01-0.991-1.625-0.991c-0.275,0-0.504,0.077-0.682,0.233c-0.178,0.154-0.289,0.404-0.336,0.75L246.695,104.441z"/>
		<path fill="#3D3F3F" d="M246.938,93.838c0.287,0,0.533,0.104,0.74,0.31c0.207,0.207,0.311,0.454,0.311,0.741
			s-0.104,0.535-0.311,0.742s-0.453,0.311-0.74,0.311c-0.289,0-0.535-0.104-0.742-0.311s-0.311-0.455-0.311-0.742
			s0.104-0.534,0.311-0.741C246.402,93.941,246.648,93.838,246.938,93.838z"/>
	</g>
</g>
</svg>
